<svg width="383" height="214" viewBox="0 0 383 214" fill="none" xmlns="http://www.w3.org/2000/svg">
<g filter="url(#filter0_d_1_1777)">
<rect x="4" width="375" height="206" rx="30" fill="white"/>
</g>
<path d="M138.768 24.292C140.15 24.292 141.158 24.5898 141.793 25.1855C142.428 25.7764 142.745 26.5918 142.745 27.6318C142.745 28.1006 142.674 28.5498 142.533 28.9795C142.391 29.4043 142.159 29.7827 141.837 30.1147C141.52 30.4468 141.095 30.7104 140.562 30.9058C140.03 31.0962 139.374 31.1914 138.592 31.1914H137.618V35H135.348V24.292H138.768ZM138.651 26.1523H137.618V29.3311H138.365C138.79 29.3311 139.159 29.2749 139.471 29.1626C139.784 29.0503 140.025 28.8745 140.196 28.6353C140.367 28.396 140.453 28.0884 140.453 27.7124C140.453 27.1851 140.306 26.7944 140.013 26.5405C139.72 26.2817 139.266 26.1523 138.651 26.1523ZM147.945 26.6431C149.044 26.6431 149.886 26.8823 150.472 27.3608C151.058 27.8394 151.351 28.5669 151.351 29.5435V35H149.791L149.359 33.8867H149.3C149.066 34.1797 148.827 34.4189 148.583 34.6045C148.338 34.79 148.058 34.9268 147.74 35.0146C147.423 35.1025 147.037 35.1465 146.583 35.1465C146.1 35.1465 145.665 35.0537 145.279 34.8682C144.898 34.6826 144.598 34.3994 144.378 34.0186C144.159 33.6328 144.049 33.1445 144.049 32.5537C144.049 31.6846 144.354 31.0449 144.964 30.6348C145.575 30.2197 146.49 29.9902 147.711 29.9463L149.132 29.9023V29.5435C149.132 29.1138 149.02 28.7988 148.795 28.5986C148.57 28.3984 148.258 28.2983 147.857 28.2983C147.462 28.2983 147.074 28.3545 146.693 28.4668C146.312 28.5791 145.931 28.7207 145.55 28.8916L144.811 27.3828C145.245 27.1533 145.731 26.9727 146.268 26.8408C146.81 26.709 147.369 26.6431 147.945 26.6431ZM149.132 31.2061L148.268 31.2354C147.545 31.2549 147.042 31.3843 146.759 31.6235C146.48 31.8628 146.341 32.1777 146.341 32.5684C146.341 32.9102 146.441 33.1543 146.642 33.3008C146.842 33.4424 147.103 33.5132 147.425 33.5132C147.904 33.5132 148.307 33.3716 148.634 33.0884C148.966 32.8052 149.132 32.4023 149.132 31.8799V31.2061ZM157.108 33.3667C157.352 33.3667 157.589 33.3423 157.818 33.2935C158.053 33.2446 158.285 33.1836 158.514 33.1104V34.7729C158.275 34.8804 157.977 34.9683 157.621 35.0366C157.269 35.1099 156.883 35.1465 156.463 35.1465C155.975 35.1465 155.536 35.0684 155.145 34.9121C154.759 34.751 154.454 34.4751 154.229 34.0845C154.01 33.689 153.9 33.1396 153.9 32.4365V28.4888H152.831V27.5439L154.061 26.7969L154.706 25.0684H156.134V26.8115H158.426V28.4888H156.134V32.4365C156.134 32.749 156.222 32.9834 156.397 33.1396C156.578 33.291 156.815 33.3667 157.108 33.3667ZM162.411 26.8115V35H160.177V26.8115H162.411ZM161.297 23.6035C161.629 23.6035 161.915 23.6816 162.154 23.8379C162.394 23.9893 162.513 24.2749 162.513 24.6948C162.513 25.1099 162.394 25.3979 162.154 25.5591C161.915 25.7153 161.629 25.7935 161.297 25.7935C160.96 25.7935 160.672 25.7153 160.433 25.5591C160.199 25.3979 160.082 25.1099 160.082 24.6948C160.082 24.2749 160.199 23.9893 160.433 23.8379C160.672 23.6816 160.96 23.6035 161.297 23.6035ZM168.138 26.6577C168.895 26.6577 169.547 26.8042 170.094 27.0972C170.641 27.3853 171.063 27.8052 171.361 28.3569C171.659 28.9087 171.808 29.5825 171.808 30.3784V31.4624H166.527C166.551 32.0923 166.739 32.5879 167.091 32.9492C167.447 33.3057 167.94 33.4839 168.57 33.4839C169.093 33.4839 169.571 33.4302 170.006 33.3228C170.44 33.2153 170.887 33.0542 171.346 32.8394V34.5679C170.941 34.7681 170.516 34.9146 170.072 35.0073C169.632 35.1001 169.098 35.1465 168.468 35.1465C167.647 35.1465 166.92 34.9951 166.285 34.6924C165.655 34.3896 165.16 33.9282 164.798 33.3081C164.442 32.688 164.264 31.9067 164.264 30.9644C164.264 30.0073 164.425 29.2114 164.747 28.5767C165.074 27.937 165.528 27.4585 166.109 27.1411C166.69 26.8188 167.367 26.6577 168.138 26.6577ZM168.153 28.2471C167.718 28.2471 167.357 28.3862 167.069 28.6646C166.786 28.9429 166.622 29.3799 166.578 29.9756H169.713C169.708 29.6436 169.647 29.3481 169.53 29.0894C169.417 28.8306 169.247 28.6255 169.017 28.4741C168.792 28.3228 168.504 28.2471 168.153 28.2471ZM178.275 26.6577C179.149 26.6577 179.852 26.897 180.384 27.3755C180.917 27.8491 181.183 28.6108 181.183 29.6606V35H178.949V30.2173C178.949 29.6313 178.841 29.1895 178.626 28.8916C178.417 28.5938 178.084 28.4448 177.63 28.4448C176.947 28.4448 176.48 28.6768 176.231 29.1406C175.982 29.6045 175.858 30.2734 175.858 31.1475V35H173.624V26.8115H175.331L175.631 27.8589H175.755C175.931 27.5757 176.148 27.3462 176.407 27.1704C176.671 26.9946 176.961 26.8652 177.279 26.7822C177.601 26.6992 177.933 26.6577 178.275 26.6577ZM186.932 33.3667C187.176 33.3667 187.413 33.3423 187.643 33.2935C187.877 33.2446 188.109 33.1836 188.338 33.1104V34.7729C188.099 34.8804 187.801 34.9683 187.445 35.0366C187.093 35.1099 186.708 35.1465 186.288 35.1465C185.799 35.1465 185.36 35.0684 184.969 34.9121C184.583 34.751 184.278 34.4751 184.054 34.0845C183.834 33.689 183.724 33.1396 183.724 32.4365V28.4888H182.655V27.5439L183.885 26.7969L184.53 25.0684H185.958V26.8115H188.25V28.4888H185.958V32.4365C185.958 32.749 186.046 32.9834 186.222 33.1396C186.402 33.291 186.639 33.3667 186.932 33.3667ZM198.548 26.6577C199.422 26.6577 200.125 26.897 200.658 27.3755C201.19 27.8491 201.456 28.6108 201.456 29.6606V35H199.222V30.2173C199.222 29.6313 199.115 29.1895 198.9 28.8916C198.69 28.5938 198.358 28.4448 197.904 28.4448C197.22 28.4448 196.754 28.6768 196.505 29.1406C196.256 29.6045 196.131 30.2734 196.131 31.1475V35H193.897V26.8115H195.604L195.904 27.8589H196.029C196.205 27.5757 196.422 27.3462 196.681 27.1704C196.944 26.9946 197.235 26.8652 197.552 26.7822C197.875 26.6992 198.207 26.6577 198.548 26.6577ZM207.11 26.6431C208.209 26.6431 209.051 26.8823 209.637 27.3608C210.223 27.8394 210.516 28.5669 210.516 29.5435V35H208.956L208.524 33.8867H208.465C208.231 34.1797 207.992 34.4189 207.748 34.6045C207.503 34.79 207.223 34.9268 206.905 35.0146C206.588 35.1025 206.202 35.1465 205.748 35.1465C205.265 35.1465 204.83 35.0537 204.444 34.8682C204.063 34.6826 203.763 34.3994 203.543 34.0186C203.324 33.6328 203.214 33.1445 203.214 32.5537C203.214 31.6846 203.519 31.0449 204.129 30.6348C204.74 30.2197 205.655 29.9902 206.876 29.9463L208.297 29.9023V29.5435C208.297 29.1138 208.185 28.7988 207.96 28.5986C207.735 28.3984 207.423 28.2983 207.022 28.2983C206.627 28.2983 206.239 28.3545 205.858 28.4668C205.477 28.5791 205.096 28.7207 204.715 28.8916L203.976 27.3828C204.41 27.1533 204.896 26.9727 205.433 26.8408C205.975 26.709 206.534 26.6431 207.11 26.6431ZM208.297 31.2061L207.433 31.2354C206.71 31.2549 206.207 31.3843 205.924 31.6235C205.646 31.8628 205.506 32.1777 205.506 32.5684C205.506 32.9102 205.606 33.1543 205.807 33.3008C206.007 33.4424 206.268 33.5132 206.59 33.5132C207.069 33.5132 207.472 33.3716 207.799 33.0884C208.131 32.8052 208.297 32.4023 208.297 31.8799V31.2061ZM222.44 26.6577C223.368 26.6577 224.068 26.897 224.542 27.3755C225.021 27.8491 225.26 28.6108 225.26 29.6606V35H223.019V30.2173C223.019 29.6313 222.918 29.1895 222.718 28.8916C222.518 28.5938 222.208 28.4448 221.788 28.4448C221.197 28.4448 220.777 28.6572 220.528 29.082C220.279 29.502 220.155 30.105 220.155 30.8911V35H217.921V30.2173C217.921 29.8267 217.877 29.4995 217.789 29.2358C217.701 28.9722 217.567 28.7744 217.386 28.6426C217.206 28.5107 216.974 28.4448 216.69 28.4448C216.275 28.4448 215.948 28.5498 215.709 28.7598C215.475 28.9648 215.306 29.27 215.204 29.6753C215.106 30.0757 215.057 30.5664 215.057 31.1475V35H212.823V26.8115H214.53L214.83 27.8589H214.955C215.121 27.5757 215.328 27.3462 215.577 27.1704C215.831 26.9946 216.109 26.8652 216.412 26.7822C216.715 26.6992 217.022 26.6577 217.335 26.6577C217.936 26.6577 218.443 26.7554 218.858 26.9507C219.278 27.146 219.601 27.4487 219.825 27.8589H220.023C220.267 27.439 220.611 27.1338 221.056 26.9434C221.505 26.7529 221.966 26.6577 222.44 26.6577ZM230.936 26.6577C231.693 26.6577 232.345 26.8042 232.892 27.0972C233.438 27.3853 233.861 27.8052 234.159 28.3569C234.457 28.9087 234.605 29.5825 234.605 30.3784V31.4624H229.325C229.349 32.0923 229.537 32.5879 229.889 32.9492C230.245 33.3057 230.738 33.4839 231.368 33.4839C231.891 33.4839 232.369 33.4302 232.804 33.3228C233.238 33.2153 233.685 33.0542 234.144 32.8394V34.5679C233.739 34.7681 233.314 34.9146 232.87 35.0073C232.43 35.1001 231.896 35.1465 231.266 35.1465C230.445 35.1465 229.718 34.9951 229.083 34.6924C228.453 34.3896 227.958 33.9282 227.596 33.3081C227.24 32.688 227.062 31.9067 227.062 30.9644C227.062 30.0073 227.223 29.2114 227.545 28.5767C227.872 27.937 228.326 27.4585 228.907 27.1411C229.488 26.8188 230.165 26.6577 230.936 26.6577ZM230.951 28.2471C230.516 28.2471 230.155 28.3862 229.867 28.6646C229.583 28.9429 229.42 29.3799 229.376 29.9756H232.511C232.506 29.6436 232.445 29.3481 232.328 29.0894C232.215 28.8306 232.044 28.6255 231.815 28.4741C231.59 28.3228 231.302 28.2471 230.951 28.2471ZM245.343 35H243.08V28.8037C243.08 28.6328 243.082 28.4229 243.087 28.1738C243.092 27.9199 243.099 27.6611 243.109 27.3975C243.119 27.1289 243.128 26.8872 243.138 26.6724C243.084 26.7358 242.975 26.8457 242.809 27.002C242.647 27.1533 242.496 27.29 242.354 27.4121L241.124 28.4009L240.033 27.0386L243.482 24.292H245.343V35ZM141.903 75L141.126 72.4512H137.223L136.446 75H134L137.779 64.248H140.555L144.349 75H141.903ZM140.584 70.5469L139.808 68.0566C139.759 67.8906 139.693 67.6782 139.61 67.4194C139.532 67.1558 139.452 66.8896 139.369 66.6211C139.291 66.3477 139.227 66.1108 139.178 65.9106C139.129 66.1108 139.061 66.3599 138.973 66.6577C138.89 66.9507 138.81 67.229 138.731 67.4927C138.653 67.7563 138.597 67.9443 138.563 68.0566L137.794 70.5469H140.584ZM147.923 78.6035C146.781 78.6035 145.907 78.4033 145.301 78.0029C144.701 77.6074 144.4 77.0508 144.4 76.333C144.4 75.8398 144.554 75.4272 144.862 75.0952C145.169 74.7632 145.621 74.5264 146.217 74.3848C145.987 74.2871 145.787 74.1284 145.616 73.9087C145.445 73.6841 145.36 73.4473 145.36 73.1982C145.36 72.8857 145.45 72.627 145.631 72.4219C145.812 72.2119 146.073 72.0068 146.415 71.8066C145.985 71.6211 145.643 71.3232 145.389 70.9131C145.14 70.5029 145.016 70.0195 145.016 69.4629C145.016 68.8672 145.145 68.3618 145.404 67.9468C145.667 67.5269 146.048 67.207 146.546 66.9873C147.049 66.7676 147.66 66.6577 148.377 66.6577C148.529 66.6577 148.705 66.6675 148.905 66.687C149.105 66.7065 149.288 66.7285 149.454 66.7529C149.625 66.7773 149.74 66.7969 149.798 66.8115H152.655V67.9468L151.373 68.2764C151.49 68.457 151.578 68.6499 151.637 68.855C151.695 69.0601 151.725 69.2773 151.725 69.5068C151.725 70.3857 151.417 71.0718 150.802 71.5649C150.191 72.0532 149.342 72.2974 148.253 72.2974C147.994 72.2827 147.75 72.2632 147.521 72.2388C147.408 72.3267 147.323 72.4194 147.264 72.5171C147.206 72.6147 147.176 72.7173 147.176 72.8247C147.176 72.9321 147.22 73.0225 147.308 73.0957C147.401 73.1641 147.538 73.2178 147.718 73.2568C147.904 73.291 148.133 73.3081 148.407 73.3081H149.798C150.697 73.3081 151.38 73.501 151.849 73.8867C152.323 74.2725 152.56 74.8389 152.56 75.5859C152.56 76.543 152.159 77.2852 151.358 77.8125C150.562 78.3398 149.417 78.6035 147.923 78.6035ZM148.019 77.146C148.551 77.146 149.007 77.0947 149.388 76.9922C149.774 76.8945 150.069 76.7529 150.274 76.5674C150.479 76.3867 150.582 76.1694 150.582 75.9155C150.582 75.7104 150.521 75.5469 150.399 75.4248C150.282 75.3076 150.101 75.2246 149.857 75.1758C149.618 75.127 149.31 75.1025 148.934 75.1025H147.777C147.503 75.1025 147.257 75.1465 147.037 75.2344C146.822 75.3223 146.651 75.4443 146.524 75.6006C146.397 75.7617 146.334 75.9473 146.334 76.1572C146.334 76.4648 146.48 76.7065 146.773 76.8823C147.071 77.0581 147.486 77.146 148.019 77.146ZM148.377 70.9351C148.797 70.9351 149.105 70.8057 149.3 70.5469C149.496 70.2881 149.593 69.9365 149.593 69.4922C149.593 68.999 149.491 68.6304 149.286 68.3862C149.085 68.1372 148.783 68.0127 148.377 68.0127C147.967 68.0127 147.66 68.1372 147.455 68.3862C147.25 68.6304 147.147 68.999 147.147 69.4922C147.147 69.9365 147.247 70.2881 147.447 70.5469C147.652 70.8057 147.962 70.9351 148.377 70.9351ZM157.386 66.6577C158.143 66.6577 158.795 66.8042 159.342 67.0972C159.889 67.3853 160.311 67.8052 160.609 68.3569C160.907 68.9087 161.056 69.5825 161.056 70.3784V71.4624H155.775C155.799 72.0923 155.987 72.5879 156.339 72.9492C156.695 73.3057 157.188 73.4839 157.818 73.4839C158.341 73.4839 158.819 73.4302 159.254 73.3228C159.688 73.2153 160.135 73.0542 160.594 72.8394V74.5679C160.189 74.7681 159.764 74.9146 159.32 75.0073C158.88 75.1001 158.346 75.1465 157.716 75.1465C156.896 75.1465 156.168 74.9951 155.533 74.6924C154.903 74.3896 154.408 73.9282 154.046 73.3081C153.69 72.688 153.512 71.9067 153.512 70.9644C153.512 70.0073 153.673 69.2114 153.995 68.5767C154.322 67.937 154.776 67.4585 155.357 67.1411C155.938 66.8188 156.615 66.6577 157.386 66.6577ZM157.401 68.2471C156.966 68.2471 156.605 68.3862 156.317 68.6646C156.034 68.9429 155.87 69.3799 155.826 69.9756H158.961C158.956 69.6436 158.895 69.3481 158.778 69.0894C158.666 68.8306 158.495 68.6255 158.265 68.4741C158.041 68.3228 157.752 68.2471 157.401 68.2471ZM162.557 73.9526C162.557 73.4937 162.682 73.1714 162.931 72.9858C163.185 72.8003 163.49 72.7075 163.846 72.7075C164.193 72.7075 164.491 72.8003 164.74 72.9858C164.994 73.1714 165.121 73.4937 165.121 73.9526C165.121 74.3921 164.994 74.7095 164.74 74.9048C164.491 75.1001 164.193 75.1978 163.846 75.1978C163.49 75.1978 163.185 75.1001 162.931 74.9048C162.682 74.7095 162.557 74.3921 162.557 73.9526ZM162.557 67.9028C162.557 67.4438 162.682 67.1216 162.931 66.936C163.185 66.7505 163.49 66.6577 163.846 66.6577C164.193 66.6577 164.491 66.7505 164.74 66.936C164.994 67.1216 165.121 67.4438 165.121 67.9028C165.121 68.3472 164.994 68.667 164.74 68.8623C164.491 69.0527 164.193 69.1479 163.846 69.1479C163.49 69.1479 163.185 69.0527 162.931 68.8623C162.682 68.667 162.557 68.3472 162.557 67.9028ZM171.537 75L175.558 66.1963H170.277V64.292H177.96V65.7129L173.91 75H171.537ZM182.354 66.8115H184.801L186.346 71.4185C186.395 71.5649 186.437 71.7139 186.471 71.8652C186.505 72.0166 186.534 72.1729 186.559 72.334C186.583 72.4951 186.603 72.6636 186.617 72.8394H186.661C186.69 72.5757 186.729 72.3291 186.778 72.0996C186.832 71.8701 186.898 71.6431 186.976 71.4185L188.492 66.8115H190.887L187.423 76.0474C187.213 76.6138 186.939 77.085 186.603 77.4609C186.266 77.8418 185.877 78.1274 185.438 78.3179C185.003 78.5083 184.525 78.6035 184.002 78.6035C183.749 78.6035 183.529 78.5889 183.343 78.5596C183.158 78.5352 182.999 78.5083 182.867 78.479V76.7065C182.97 76.731 183.099 76.7529 183.255 76.7725C183.412 76.792 183.575 76.8018 183.746 76.8018C184.059 76.8018 184.327 76.7358 184.552 76.604C184.776 76.4722 184.964 76.2939 185.116 76.0693C185.267 75.8496 185.387 75.6079 185.475 75.3442L185.606 74.9414L182.354 66.8115ZM195.443 66.6577C196.2 66.6577 196.852 66.8042 197.398 67.0972C197.945 67.3853 198.368 67.8052 198.666 68.3569C198.963 68.9087 199.112 69.5825 199.112 70.3784V71.4624H193.832C193.856 72.0923 194.044 72.5879 194.396 72.9492C194.752 73.3057 195.245 73.4839 195.875 73.4839C196.397 73.4839 196.876 73.4302 197.311 73.3228C197.745 73.2153 198.192 73.0542 198.651 72.8394V74.5679C198.246 74.7681 197.821 74.9146 197.376 75.0073C196.937 75.1001 196.402 75.1465 195.772 75.1465C194.952 75.1465 194.225 74.9951 193.59 74.6924C192.96 74.3896 192.464 73.9282 192.103 73.3081C191.747 72.688 191.568 71.9067 191.568 70.9644C191.568 70.0073 191.729 69.2114 192.052 68.5767C192.379 67.937 192.833 67.4585 193.414 67.1411C193.995 66.8188 194.671 66.6577 195.443 66.6577ZM195.458 68.2471C195.023 68.2471 194.662 68.3862 194.374 68.6646C194.09 68.9429 193.927 69.3799 193.883 69.9756H197.018C197.013 69.6436 196.952 69.3481 196.834 69.0894C196.722 68.8306 196.551 68.6255 196.322 68.4741C196.097 68.3228 195.809 68.2471 195.458 68.2471ZM204.283 66.6431C205.382 66.6431 206.224 66.8823 206.81 67.3608C207.396 67.8394 207.689 68.5669 207.689 69.5435V75H206.129L205.697 73.8867H205.638C205.404 74.1797 205.165 74.4189 204.92 74.6045C204.676 74.79 204.396 74.9268 204.078 75.0146C203.761 75.1025 203.375 75.1465 202.921 75.1465C202.438 75.1465 202.003 75.0537 201.617 74.8682C201.236 74.6826 200.936 74.3994 200.716 74.0186C200.497 73.6328 200.387 73.1445 200.387 72.5537C200.387 71.6846 200.692 71.0449 201.302 70.6348C201.913 70.2197 202.828 69.9902 204.049 69.9463L205.47 69.9023V69.5435C205.47 69.1138 205.357 68.7988 205.133 68.5986C204.908 68.3984 204.596 68.2983 204.195 68.2983C203.8 68.2983 203.412 68.3545 203.031 68.4668C202.65 68.5791 202.269 68.7207 201.888 68.8916L201.148 67.3828C201.583 67.1533 202.069 66.9727 202.606 66.8408C203.148 66.709 203.707 66.6431 204.283 66.6431ZM205.47 71.2061L204.605 71.2354C203.883 71.2549 203.38 71.3843 203.097 71.6235C202.818 71.8628 202.679 72.1777 202.679 72.5684C202.679 72.9102 202.779 73.1543 202.979 73.3008C203.18 73.4424 203.441 73.5132 203.763 73.5132C204.242 73.5132 204.645 73.3716 204.972 73.0884C205.304 72.8052 205.47 72.4023 205.47 71.8799V71.2061ZM214.566 66.6577C214.679 66.6577 214.808 66.665 214.955 66.6797C215.106 66.6895 215.228 66.7041 215.321 66.7236L215.152 68.8184C215.079 68.7939 214.974 68.7769 214.837 68.7671C214.706 68.7524 214.591 68.7451 214.493 68.7451C214.205 68.7451 213.924 68.7817 213.651 68.855C213.382 68.9282 213.141 69.0479 212.926 69.2139C212.711 69.375 212.54 69.5898 212.413 69.8584C212.291 70.1221 212.23 70.4468 212.23 70.8325V75H209.996V66.8115H211.688L212.018 68.1885H212.127C212.289 67.9102 212.489 67.6562 212.728 67.4268C212.972 67.1924 213.248 67.0068 213.556 66.8701C213.868 66.7285 214.205 66.6577 214.566 66.6577ZM222.521 72.5684C222.521 73.125 222.389 73.5962 222.125 73.9819C221.866 74.3628 221.478 74.6533 220.96 74.8535C220.443 75.0488 219.798 75.1465 219.027 75.1465C218.456 75.1465 217.965 75.1099 217.555 75.0366C217.149 74.9634 216.739 74.8413 216.324 74.6704V72.8247C216.769 73.0249 217.245 73.1909 217.752 73.3228C218.265 73.4497 218.714 73.5132 219.1 73.5132C219.535 73.5132 219.845 73.4497 220.03 73.3228C220.221 73.1909 220.316 73.02 220.316 72.8101C220.316 72.6733 220.277 72.5513 220.199 72.4438C220.125 72.3315 219.964 72.207 219.715 72.0703C219.466 71.9287 219.076 71.7456 218.543 71.521C218.031 71.3062 217.608 71.0889 217.276 70.8691C216.949 70.6494 216.705 70.3906 216.544 70.0928C216.388 69.79 216.31 69.4067 216.31 68.9429C216.31 68.186 216.603 67.6172 217.188 67.2363C217.779 66.8506 218.568 66.6577 219.554 66.6577C220.062 66.6577 220.545 66.709 221.004 66.8115C221.468 66.9141 221.944 67.0776 222.433 67.3022L221.759 68.9136C221.354 68.7378 220.97 68.5938 220.609 68.4814C220.252 68.3691 219.889 68.313 219.518 68.313C219.19 68.313 218.944 68.3569 218.778 68.4448C218.612 68.5327 218.529 68.667 218.529 68.8477C218.529 68.9795 218.57 69.0967 218.653 69.1992C218.741 69.3018 218.907 69.4165 219.151 69.5435C219.4 69.6655 219.764 69.8242 220.243 70.0195C220.707 70.21 221.109 70.4102 221.451 70.6201C221.793 70.8252 222.057 71.0815 222.242 71.3892C222.428 71.6919 222.521 72.085 222.521 72.5684ZM139.413 88.9868H143.661V94.5386C143.099 94.7241 142.516 94.873 141.91 94.9854C141.305 95.0928 140.619 95.1465 139.852 95.1465C138.788 95.1465 137.884 94.9365 137.142 94.5166C136.4 94.0967 135.836 93.4766 135.45 92.6562C135.064 91.8359 134.872 90.8276 134.872 89.6313C134.872 88.5083 135.086 87.5366 135.516 86.7163C135.951 85.896 136.583 85.2612 137.413 84.812C138.248 84.3628 139.266 84.1382 140.467 84.1382C141.034 84.1382 141.593 84.1992 142.145 84.3213C142.696 84.4434 143.197 84.6021 143.646 84.7974L142.892 86.6138C142.564 86.4478 142.191 86.3086 141.771 86.1963C141.351 86.084 140.912 86.0278 140.453 86.0278C139.793 86.0278 139.22 86.1792 138.731 86.4819C138.248 86.7847 137.872 87.2095 137.604 87.7563C137.34 88.2983 137.208 88.938 137.208 89.6753C137.208 90.3735 137.303 90.9937 137.494 91.5356C137.684 92.0728 137.984 92.4951 138.395 92.8027C138.805 93.1055 139.339 93.2568 139.999 93.2568C140.321 93.2568 140.592 93.2422 140.812 93.2129C141.036 93.1787 141.246 93.1445 141.441 93.1104V90.8765H139.413V88.9868ZM149.417 86.6577C150.174 86.6577 150.826 86.8042 151.373 87.0972C151.92 87.3853 152.342 87.8052 152.64 88.3569C152.938 88.9087 153.087 89.5825 153.087 90.3784V91.4624H147.806C147.831 92.0923 148.019 92.5879 148.37 92.9492C148.727 93.3057 149.22 93.4839 149.85 93.4839C150.372 93.4839 150.851 93.4302 151.285 93.3228C151.72 93.2153 152.167 93.0542 152.625 92.8394V94.5679C152.22 94.7681 151.795 94.9146 151.351 95.0073C150.912 95.1001 150.377 95.1465 149.747 95.1465C148.927 95.1465 148.199 94.9951 147.564 94.6924C146.935 94.3896 146.439 93.9282 146.078 93.3081C145.721 92.688 145.543 91.9067 145.543 90.9644C145.543 90.0073 145.704 89.2114 146.026 88.5767C146.354 87.937 146.808 87.4585 147.389 87.1411C147.97 86.8188 148.646 86.6577 149.417 86.6577ZM149.432 88.2471C148.998 88.2471 148.636 88.3862 148.348 88.6646C148.065 88.9429 147.901 89.3799 147.857 89.9756H150.992C150.987 89.6436 150.926 89.3481 150.809 89.0894C150.697 88.8306 150.526 88.6255 150.296 88.4741C150.072 88.3228 149.784 88.2471 149.432 88.2471ZM159.554 86.6577C160.428 86.6577 161.131 86.897 161.664 87.3755C162.196 87.8491 162.462 88.6108 162.462 89.6606V95H160.228V90.2173C160.228 89.6313 160.121 89.1895 159.906 88.8916C159.696 88.5938 159.364 88.4448 158.91 88.4448C158.226 88.4448 157.76 88.6768 157.511 89.1406C157.262 89.6045 157.137 90.2734 157.137 91.1475V95H154.903V86.8115H156.61L156.91 87.8589H157.035C157.21 87.5757 157.428 87.3462 157.687 87.1704C157.95 86.9946 158.241 86.8652 158.558 86.7822C158.88 86.6992 159.212 86.6577 159.554 86.6577ZM167.354 95.1465C166.441 95.1465 165.697 94.79 165.121 94.0771C164.549 93.3594 164.264 92.3071 164.264 90.9204C164.264 89.519 164.554 88.4595 165.135 87.7417C165.716 87.019 166.476 86.6577 167.413 86.6577C167.804 86.6577 168.148 86.7114 168.446 86.8188C168.744 86.9263 169 87.0703 169.215 87.251C169.435 87.4316 169.62 87.6343 169.771 87.8589H169.845C169.815 87.7026 169.779 87.4731 169.735 87.1704C169.696 86.8628 169.676 86.5479 169.676 86.2256V83.6035H171.917V95H170.204L169.771 93.938H169.676C169.535 94.1626 169.356 94.3677 169.142 94.5532C168.932 94.7339 168.68 94.8779 168.387 94.9854C168.094 95.0928 167.75 95.1465 167.354 95.1465ZM168.138 93.3667C168.749 93.3667 169.178 93.186 169.427 92.8247C169.681 92.4585 169.815 91.9092 169.83 91.1768V90.9351C169.83 90.1392 169.708 89.5312 169.464 89.1113C169.22 88.6865 168.766 88.4741 168.102 88.4741C167.608 88.4741 167.223 88.6865 166.944 89.1113C166.666 89.5361 166.527 90.1489 166.527 90.9497C166.527 91.7505 166.666 92.3535 166.944 92.7588C167.228 93.1641 167.625 93.3667 168.138 93.3667ZM177.63 86.6577C178.387 86.6577 179.039 86.8042 179.586 87.0972C180.133 87.3853 180.555 87.8052 180.853 88.3569C181.151 88.9087 181.3 89.5825 181.3 90.3784V91.4624H176.019C176.043 92.0923 176.231 92.5879 176.583 92.9492C176.939 93.3057 177.433 93.4839 178.062 93.4839C178.585 93.4839 179.063 93.4302 179.498 93.3228C179.933 93.2153 180.379 93.0542 180.838 92.8394V94.5679C180.433 94.7681 180.008 94.9146 179.564 95.0073C179.125 95.1001 178.59 95.1465 177.96 95.1465C177.14 95.1465 176.412 94.9951 175.777 94.6924C175.147 94.3896 174.652 93.9282 174.291 93.3081C173.934 92.688 173.756 91.9067 173.756 90.9644C173.756 90.0073 173.917 89.2114 174.239 88.5767C174.566 87.937 175.021 87.4585 175.602 87.1411C176.183 86.8188 176.859 86.6577 177.63 86.6577ZM177.645 88.2471C177.21 88.2471 176.849 88.3862 176.561 88.6646C176.278 88.9429 176.114 89.3799 176.07 89.9756H179.205C179.2 89.6436 179.139 89.3481 179.022 89.0894C178.91 88.8306 178.739 88.6255 178.509 88.4741C178.285 88.3228 177.997 88.2471 177.645 88.2471ZM187.687 86.6577C187.799 86.6577 187.928 86.665 188.075 86.6797C188.226 86.6895 188.348 86.7041 188.441 86.7236L188.272 88.8184C188.199 88.7939 188.094 88.7769 187.958 88.7671C187.826 88.7524 187.711 88.7451 187.613 88.7451C187.325 88.7451 187.044 88.7817 186.771 88.855C186.502 88.9282 186.261 89.0479 186.046 89.2139C185.831 89.375 185.66 89.5898 185.533 89.8584C185.411 90.1221 185.35 90.4468 185.35 90.8325V95H183.116V86.8115H184.808L185.138 88.1885H185.248C185.409 87.9102 185.609 87.6562 185.848 87.4268C186.092 87.1924 186.368 87.0068 186.676 86.8701C186.988 86.7285 187.325 86.6577 187.687 86.6577ZM189.613 93.9526C189.613 93.4937 189.737 93.1714 189.986 92.9858C190.24 92.8003 190.545 92.7075 190.902 92.7075C191.249 92.7075 191.546 92.8003 191.795 92.9858C192.049 93.1714 192.176 93.4937 192.176 93.9526C192.176 94.3921 192.049 94.7095 191.795 94.9048C191.546 95.1001 191.249 95.1978 190.902 95.1978C190.545 95.1978 190.24 95.1001 189.986 94.9048C189.737 94.7095 189.613 94.3921 189.613 93.9526ZM189.613 87.9028C189.613 87.4438 189.737 87.1216 189.986 86.936C190.24 86.7505 190.545 86.6577 190.902 86.6577C191.249 86.6577 191.546 86.7505 191.795 86.936C192.049 87.1216 192.176 87.4438 192.176 87.9028C192.176 88.3472 192.049 88.667 191.795 88.8623C191.546 89.0527 191.249 89.1479 190.902 89.1479C190.545 89.1479 190.24 89.0527 189.986 88.8623C189.737 88.667 189.613 88.3472 189.613 87.9028ZM200.511 95H198.277V84.292H204.415V86.1523H200.511V88.9136H204.144V90.7666H200.511V95ZM209.71 86.6577C210.467 86.6577 211.119 86.8042 211.666 87.0972C212.213 87.3853 212.635 87.8052 212.933 88.3569C213.231 88.9087 213.38 89.5825 213.38 90.3784V91.4624H208.099C208.124 92.0923 208.312 92.5879 208.663 92.9492C209.02 93.3057 209.513 93.4839 210.143 93.4839C210.665 93.4839 211.144 93.4302 211.578 93.3228C212.013 93.2153 212.459 93.0542 212.918 92.8394V94.5679C212.513 94.7681 212.088 94.9146 211.644 95.0073C211.205 95.1001 210.67 95.1465 210.04 95.1465C209.22 95.1465 208.492 94.9951 207.857 94.6924C207.228 94.3896 206.732 93.9282 206.371 93.3081C206.014 92.688 205.836 91.9067 205.836 90.9644C205.836 90.0073 205.997 89.2114 206.319 88.5767C206.646 87.937 207.101 87.4585 207.682 87.1411C208.263 86.8188 208.939 86.6577 209.71 86.6577ZM209.725 88.2471C209.291 88.2471 208.929 88.3862 208.641 88.6646C208.358 88.9429 208.194 89.3799 208.15 89.9756H211.285C211.28 89.6436 211.219 89.3481 211.102 89.0894C210.99 88.8306 210.819 88.6255 210.589 88.4741C210.365 88.3228 210.077 88.2471 209.725 88.2471ZM224.813 86.6577C225.741 86.6577 226.441 86.897 226.915 87.3755C227.394 87.8491 227.633 88.6108 227.633 89.6606V95H225.392V90.2173C225.392 89.6313 225.292 89.1895 225.091 88.8916C224.891 88.5938 224.581 88.4448 224.161 88.4448C223.57 88.4448 223.15 88.6572 222.901 89.082C222.652 89.502 222.528 90.105 222.528 90.8911V95H220.294V90.2173C220.294 89.8267 220.25 89.4995 220.162 89.2358C220.074 88.9722 219.94 88.7744 219.759 88.6426C219.579 88.5107 219.347 88.4448 219.063 88.4448C218.648 88.4448 218.321 88.5498 218.082 88.7598C217.848 88.9648 217.679 89.27 217.577 89.6753C217.479 90.0757 217.43 90.5664 217.43 91.1475V95H215.196V86.8115H216.903L217.203 87.8589H217.328C217.494 87.5757 217.701 87.3462 217.95 87.1704C218.204 86.9946 218.482 86.8652 218.785 86.7822C219.088 86.6992 219.396 86.6577 219.708 86.6577C220.309 86.6577 220.816 86.7554 221.231 86.9507C221.651 87.146 221.974 87.4487 222.198 87.8589H222.396C222.64 87.439 222.984 87.1338 223.429 86.9434C223.878 86.7529 224.339 86.6577 224.813 86.6577ZM233.287 86.6431C234.386 86.6431 235.228 86.8823 235.814 87.3608C236.4 87.8394 236.693 88.5669 236.693 89.5435V95H235.133L234.701 93.8867H234.642C234.408 94.1797 234.168 94.4189 233.924 94.6045C233.68 94.79 233.399 94.9268 233.082 95.0146C232.765 95.1025 232.379 95.1465 231.925 95.1465C231.441 95.1465 231.007 95.0537 230.621 94.8682C230.24 94.6826 229.94 94.3994 229.72 94.0186C229.5 93.6328 229.391 93.1445 229.391 92.5537C229.391 91.6846 229.696 91.0449 230.306 90.6348C230.917 90.2197 231.832 89.9902 233.053 89.9463L234.474 89.9023V89.5435C234.474 89.1138 234.361 88.7988 234.137 88.5986C233.912 88.3984 233.6 88.2983 233.199 88.2983C232.804 88.2983 232.416 88.3545 232.035 88.4668C231.654 88.5791 231.273 88.7207 230.892 88.8916L230.152 87.3828C230.587 87.1533 231.073 86.9727 231.61 86.8408C232.152 86.709 232.711 86.6431 233.287 86.6431ZM234.474 91.2061L233.609 91.2354C232.887 91.2549 232.384 91.3843 232.101 91.6235C231.822 91.8628 231.683 92.1777 231.683 92.5684C231.683 92.9102 231.783 93.1543 231.983 93.3008C232.184 93.4424 232.445 93.5132 232.767 93.5132C233.246 93.5132 233.648 93.3716 233.976 93.0884C234.308 92.8052 234.474 92.4023 234.474 91.8799V91.2061ZM241.234 95H239V83.6035H241.234V95ZM246.961 86.6577C247.718 86.6577 248.37 86.8042 248.917 87.0972C249.464 87.3853 249.886 87.8052 250.184 88.3569C250.482 88.9087 250.631 89.5825 250.631 90.3784V91.4624H245.35C245.375 92.0923 245.562 92.5879 245.914 92.9492C246.271 93.3057 246.764 93.4839 247.394 93.4839C247.916 93.4839 248.395 93.4302 248.829 93.3228C249.264 93.2153 249.71 93.0542 250.169 92.8394V94.5679C249.764 94.7681 249.339 94.9146 248.895 95.0073C248.456 95.1001 247.921 95.1465 247.291 95.1465C246.471 95.1465 245.743 94.9951 245.108 94.6924C244.479 94.3896 243.983 93.9282 243.622 93.3081C243.265 92.688 243.087 91.9067 243.087 90.9644C243.087 90.0073 243.248 89.2114 243.57 88.5767C243.897 87.937 244.352 87.4585 244.933 87.1411C245.514 86.8188 246.19 86.6577 246.961 86.6577ZM246.976 88.2471C246.542 88.2471 246.18 88.3862 245.892 88.6646C245.609 88.9429 245.445 89.3799 245.401 89.9756H248.536C248.531 89.6436 248.47 89.3481 248.353 89.0894C248.241 88.8306 248.07 88.6255 247.84 88.4741C247.616 88.3228 247.328 88.2471 246.976 88.2471ZM144.122 115H141.859V110.378H137.618V115H135.348V104.292H137.618V108.489H141.859V104.292H144.122V115ZM150.033 106.658C150.79 106.658 151.441 106.804 151.988 107.097C152.535 107.385 152.958 107.805 153.255 108.357C153.553 108.909 153.702 109.583 153.702 110.378V111.462H148.421C148.446 112.092 148.634 112.588 148.985 112.949C149.342 113.306 149.835 113.484 150.465 113.484C150.987 113.484 151.466 113.43 151.9 113.323C152.335 113.215 152.782 113.054 153.241 112.839V114.568C152.835 114.768 152.411 114.915 151.966 115.007C151.527 115.1 150.992 115.146 150.362 115.146C149.542 115.146 148.814 114.995 148.18 114.692C147.55 114.39 147.054 113.928 146.693 113.308C146.336 112.688 146.158 111.907 146.158 110.964C146.158 110.007 146.319 109.211 146.642 108.577C146.969 107.937 147.423 107.458 148.004 107.141C148.585 106.819 149.261 106.658 150.033 106.658ZM150.047 108.247C149.613 108.247 149.251 108.386 148.963 108.665C148.68 108.943 148.517 109.38 148.473 109.976H151.607C151.603 109.644 151.542 109.348 151.424 109.089C151.312 108.831 151.141 108.625 150.912 108.474C150.687 108.323 150.399 108.247 150.047 108.247ZM157.752 106.812V115H155.519V106.812H157.752ZM156.639 103.604C156.971 103.604 157.257 103.682 157.496 103.838C157.735 103.989 157.855 104.275 157.855 104.695C157.855 105.11 157.735 105.398 157.496 105.559C157.257 105.715 156.971 105.793 156.639 105.793C156.302 105.793 156.014 105.715 155.775 105.559C155.541 105.398 155.423 105.11 155.423 104.695C155.423 104.275 155.541 103.989 155.775 103.838C156.014 103.682 156.302 103.604 156.639 103.604ZM162.499 118.604C161.356 118.604 160.482 118.403 159.876 118.003C159.276 117.607 158.976 117.051 158.976 116.333C158.976 115.84 159.129 115.427 159.437 115.095C159.745 114.763 160.196 114.526 160.792 114.385C160.562 114.287 160.362 114.128 160.191 113.909C160.021 113.684 159.935 113.447 159.935 113.198C159.935 112.886 160.025 112.627 160.206 112.422C160.387 112.212 160.648 112.007 160.99 111.807C160.56 111.621 160.218 111.323 159.964 110.913C159.715 110.503 159.591 110.02 159.591 109.463C159.591 108.867 159.72 108.362 159.979 107.947C160.243 107.527 160.624 107.207 161.122 106.987C161.625 106.768 162.235 106.658 162.953 106.658C163.104 106.658 163.28 106.667 163.48 106.687C163.68 106.707 163.863 106.729 164.029 106.753C164.2 106.777 164.315 106.797 164.374 106.812H167.23V107.947L165.948 108.276C166.065 108.457 166.153 108.65 166.212 108.855C166.271 109.06 166.3 109.277 166.3 109.507C166.3 110.386 165.992 111.072 165.377 111.565C164.767 112.053 163.917 112.297 162.828 112.297C162.569 112.283 162.325 112.263 162.096 112.239C161.983 112.327 161.898 112.419 161.839 112.517C161.781 112.615 161.751 112.717 161.751 112.825C161.751 112.932 161.795 113.022 161.883 113.096C161.976 113.164 162.113 113.218 162.293 113.257C162.479 113.291 162.708 113.308 162.982 113.308H164.374C165.272 113.308 165.956 113.501 166.424 113.887C166.898 114.272 167.135 114.839 167.135 115.586C167.135 116.543 166.734 117.285 165.934 117.812C165.138 118.34 163.993 118.604 162.499 118.604ZM162.594 117.146C163.126 117.146 163.583 117.095 163.963 116.992C164.349 116.895 164.645 116.753 164.85 116.567C165.055 116.387 165.157 116.169 165.157 115.916C165.157 115.71 165.096 115.547 164.974 115.425C164.857 115.308 164.676 115.225 164.432 115.176C164.193 115.127 163.885 115.103 163.509 115.103H162.352C162.079 115.103 161.832 115.146 161.612 115.234C161.397 115.322 161.227 115.444 161.1 115.601C160.973 115.762 160.909 115.947 160.909 116.157C160.909 116.465 161.056 116.707 161.349 116.882C161.646 117.058 162.062 117.146 162.594 117.146ZM162.953 110.935C163.373 110.935 163.68 110.806 163.875 110.547C164.071 110.288 164.168 109.937 164.168 109.492C164.168 108.999 164.066 108.63 163.861 108.386C163.661 108.137 163.358 108.013 162.953 108.013C162.542 108.013 162.235 108.137 162.03 108.386C161.825 108.63 161.722 108.999 161.722 109.492C161.722 109.937 161.822 110.288 162.022 110.547C162.228 110.806 162.538 110.935 162.953 110.935ZM170.819 103.604V105.925C170.819 106.331 170.804 106.716 170.775 107.083C170.75 107.449 170.731 107.708 170.716 107.859H170.833C171.009 107.576 171.217 107.346 171.456 107.17C171.7 106.995 171.969 106.865 172.262 106.782C172.555 106.699 172.87 106.658 173.207 106.658C173.797 106.658 174.312 106.763 174.752 106.973C175.191 107.178 175.533 107.502 175.777 107.947C176.021 108.386 176.144 108.958 176.144 109.661V115H173.91V110.217C173.91 109.631 173.802 109.189 173.587 108.892C173.373 108.594 173.041 108.445 172.591 108.445C172.142 108.445 171.788 108.55 171.529 108.76C171.271 108.965 171.087 109.27 170.98 109.675C170.873 110.076 170.819 110.566 170.819 111.147V115H168.585V103.604H170.819ZM181.893 113.367C182.137 113.367 182.374 113.342 182.604 113.293C182.838 113.245 183.07 113.184 183.299 113.11V114.773C183.06 114.88 182.762 114.968 182.406 115.037C182.054 115.11 181.668 115.146 181.249 115.146C180.76 115.146 180.321 115.068 179.93 114.912C179.544 114.751 179.239 114.475 179.015 114.084C178.795 113.689 178.685 113.14 178.685 112.437V108.489H177.616V107.544L178.846 106.797L179.491 105.068H180.919V106.812H183.211V108.489H180.919V112.437C180.919 112.749 181.007 112.983 181.183 113.14C181.363 113.291 181.6 113.367 181.893 113.367ZM184.647 113.953C184.647 113.494 184.771 113.171 185.021 112.986C185.274 112.8 185.58 112.708 185.936 112.708C186.283 112.708 186.581 112.8 186.83 112.986C187.083 113.171 187.21 113.494 187.21 113.953C187.21 114.392 187.083 114.709 186.83 114.905C186.581 115.1 186.283 115.198 185.936 115.198C185.58 115.198 185.274 115.1 185.021 114.905C184.771 114.709 184.647 114.392 184.647 113.953ZM184.647 107.903C184.647 107.444 184.771 107.122 185.021 106.936C185.274 106.75 185.58 106.658 185.936 106.658C186.283 106.658 186.581 106.75 186.83 106.936C187.083 107.122 187.21 107.444 187.21 107.903C187.21 108.347 187.083 108.667 186.83 108.862C186.581 109.053 186.283 109.148 185.936 109.148C185.58 109.148 185.274 109.053 185.021 108.862C184.771 108.667 184.647 108.347 184.647 107.903ZM198.16 115H195.897V108.804C195.897 108.633 195.899 108.423 195.904 108.174C195.909 107.92 195.917 107.661 195.926 107.397C195.936 107.129 195.946 106.887 195.956 106.672C195.902 106.736 195.792 106.846 195.626 107.002C195.465 107.153 195.313 107.29 195.172 107.412L193.941 108.401L192.85 107.039L196.3 104.292H198.16V115ZM206.744 115H204.481V108.804C204.481 108.633 204.483 108.423 204.488 108.174C204.493 107.92 204.5 107.661 204.51 107.397C204.52 107.129 204.53 106.887 204.54 106.672C204.486 106.736 204.376 106.846 204.21 107.002C204.049 107.153 203.897 107.29 203.756 107.412L202.525 108.401L201.434 107.039L204.884 104.292H206.744V115ZM213.424 104.153C214.039 104.153 214.605 104.248 215.123 104.438C215.646 104.629 216.063 104.917 216.375 105.303C216.688 105.684 216.844 106.162 216.844 106.738C216.844 107.168 216.759 107.544 216.588 107.866C216.422 108.188 216.195 108.472 215.907 108.716C215.619 108.955 215.292 109.165 214.925 109.346C215.306 109.546 215.667 109.78 216.009 110.049C216.351 110.312 216.629 110.623 216.844 110.979C217.064 111.335 217.174 111.75 217.174 112.224C217.174 112.82 217.015 113.337 216.698 113.777C216.38 114.211 215.941 114.548 215.379 114.788C214.818 115.027 214.166 115.146 213.424 115.146C212.623 115.146 211.942 115.032 211.38 114.802C210.819 114.573 210.392 114.246 210.099 113.821C209.806 113.391 209.659 112.878 209.659 112.283C209.659 111.794 209.75 111.37 209.93 111.008C210.116 110.647 210.365 110.337 210.677 110.078C210.99 109.814 211.334 109.59 211.71 109.404C211.393 109.204 211.102 108.977 210.838 108.723C210.58 108.469 210.372 108.179 210.216 107.852C210.064 107.524 209.989 107.148 209.989 106.724C209.989 106.157 210.147 105.684 210.465 105.303C210.787 104.922 211.209 104.636 211.732 104.446C212.254 104.25 212.818 104.153 213.424 104.153ZM211.754 112.151C211.754 112.537 211.891 112.856 212.164 113.11C212.442 113.359 212.853 113.484 213.395 113.484C213.956 113.484 214.376 113.364 214.654 113.125C214.933 112.881 215.072 112.561 215.072 112.166C215.072 111.892 214.991 111.653 214.83 111.448C214.674 111.243 214.476 111.06 214.237 110.898C213.998 110.732 213.756 110.579 213.512 110.437L213.314 110.334C213.001 110.476 212.728 110.635 212.494 110.811C212.264 110.986 212.083 111.184 211.952 111.404C211.82 111.624 211.754 111.873 211.754 112.151ZM213.409 105.808C213.038 105.808 212.73 105.903 212.486 106.094C212.242 106.284 212.12 106.553 212.12 106.899C212.12 107.144 212.179 107.358 212.296 107.544C212.418 107.725 212.577 107.883 212.772 108.02C212.972 108.157 213.189 108.284 213.424 108.401C213.648 108.293 213.858 108.174 214.054 108.042C214.249 107.91 214.408 107.751 214.53 107.566C214.652 107.38 214.713 107.158 214.713 106.899C214.713 106.553 214.588 106.284 214.339 106.094C214.095 105.903 213.785 105.808 213.409 105.808ZM226.109 115.146C225.299 115.146 224.608 115 224.037 114.707C223.465 114.409 223.031 113.95 222.733 113.33C222.435 112.71 222.286 111.917 222.286 110.95C222.286 109.949 222.455 109.133 222.792 108.503C223.133 107.869 223.604 107.402 224.205 107.104C224.811 106.807 225.511 106.658 226.307 106.658C226.874 106.658 227.362 106.714 227.772 106.826C228.187 106.934 228.548 107.063 228.856 107.214L228.197 108.943C227.845 108.801 227.518 108.687 227.215 108.599C226.913 108.506 226.61 108.459 226.307 108.459C225.917 108.459 225.592 108.552 225.333 108.738C225.074 108.918 224.881 109.192 224.754 109.558C224.627 109.924 224.564 110.383 224.564 110.935C224.564 111.477 224.632 111.926 224.769 112.283C224.906 112.639 225.104 112.905 225.362 113.081C225.621 113.252 225.936 113.337 226.307 113.337C226.771 113.337 227.184 113.276 227.545 113.154C227.906 113.027 228.258 112.852 228.6 112.627V114.539C228.258 114.753 227.899 114.907 227.523 115C227.152 115.098 226.681 115.146 226.109 115.146ZM240.121 106.658C241.048 106.658 241.749 106.897 242.223 107.375C242.701 107.849 242.94 108.611 242.94 109.661V115H240.699V110.217C240.699 109.631 240.599 109.189 240.399 108.892C240.199 108.594 239.889 108.445 239.469 108.445C238.878 108.445 238.458 108.657 238.209 109.082C237.96 109.502 237.835 110.105 237.835 110.891V115H235.602V110.217C235.602 109.827 235.558 109.5 235.47 109.236C235.382 108.972 235.248 108.774 235.067 108.643C234.886 108.511 234.654 108.445 234.371 108.445C233.956 108.445 233.629 108.55 233.39 108.76C233.155 108.965 232.987 109.27 232.884 109.675C232.787 110.076 232.738 110.566 232.738 111.147V115H230.504V106.812H232.21L232.511 107.859H232.635C232.801 107.576 233.009 107.346 233.258 107.17C233.512 106.995 233.79 106.865 234.093 106.782C234.396 106.699 234.703 106.658 235.016 106.658C235.616 106.658 236.124 106.755 236.539 106.951C236.959 107.146 237.281 107.449 237.506 107.859H237.704C237.948 107.439 238.292 107.134 238.736 106.943C239.186 106.753 239.647 106.658 240.121 106.658ZM148.502 124.292L145.777 135H143.192L141.742 129.375C141.712 129.268 141.673 129.104 141.625 128.884C141.576 128.665 141.524 128.425 141.471 128.167C141.417 127.903 141.368 127.656 141.324 127.427C141.285 127.192 141.258 127.007 141.244 126.87C141.229 127.007 141.2 127.19 141.156 127.419C141.117 127.649 141.07 127.893 141.017 128.152C140.968 128.411 140.919 128.652 140.87 128.877C140.821 129.102 140.782 129.272 140.753 129.39L139.31 135H136.732L134 124.292H136.234L137.604 130.137C137.643 130.312 137.687 130.522 137.735 130.767C137.789 131.011 137.84 131.267 137.889 131.536C137.943 131.799 137.989 132.056 138.028 132.305C138.072 132.549 138.104 132.761 138.124 132.942C138.148 132.756 138.18 132.542 138.219 132.297C138.258 132.048 138.299 131.797 138.343 131.543C138.392 131.284 138.441 131.045 138.49 130.825C138.539 130.605 138.583 130.427 138.622 130.291L140.182 124.292H142.328L143.888 130.291C143.922 130.422 143.961 130.601 144.005 130.825C144.054 131.045 144.103 131.284 144.151 131.543C144.2 131.802 144.244 132.056 144.283 132.305C144.327 132.549 144.359 132.761 144.378 132.942C144.413 132.698 144.459 132.402 144.518 132.056C144.581 131.704 144.647 131.355 144.715 131.008C144.789 130.662 144.852 130.371 144.906 130.137L146.268 124.292H148.502ZM153.05 126.658C153.807 126.658 154.459 126.804 155.006 127.097C155.553 127.385 155.975 127.805 156.273 128.357C156.571 128.909 156.72 129.583 156.72 130.378V131.462H151.439C151.463 132.092 151.651 132.588 152.003 132.949C152.359 133.306 152.853 133.484 153.482 133.484C154.005 133.484 154.483 133.43 154.918 133.323C155.353 133.215 155.799 133.054 156.258 132.839V134.568C155.853 134.768 155.428 134.915 154.984 135.007C154.544 135.1 154.01 135.146 153.38 135.146C152.56 135.146 151.832 134.995 151.197 134.692C150.567 134.39 150.072 133.928 149.71 133.308C149.354 132.688 149.176 131.907 149.176 130.964C149.176 130.007 149.337 129.211 149.659 128.577C149.986 127.937 150.44 127.458 151.021 127.141C151.603 126.819 152.279 126.658 153.05 126.658ZM153.065 128.247C152.63 128.247 152.269 128.386 151.981 128.665C151.698 128.943 151.534 129.38 151.49 129.976H154.625C154.62 129.644 154.559 129.348 154.442 129.089C154.33 128.831 154.159 128.625 153.929 128.474C153.705 128.323 153.417 128.247 153.065 128.247ZM160.77 126.812V135H158.536V126.812H160.77ZM159.657 123.604C159.989 123.604 160.274 123.682 160.514 123.838C160.753 123.989 160.873 124.275 160.873 124.695C160.873 125.11 160.753 125.398 160.514 125.559C160.274 125.715 159.989 125.793 159.657 125.793C159.32 125.793 159.032 125.715 158.792 125.559C158.558 125.398 158.441 125.11 158.441 124.695C158.441 124.275 158.558 123.989 158.792 123.838C159.032 123.682 159.32 123.604 159.657 123.604ZM165.516 138.604C164.374 138.604 163.5 138.403 162.894 138.003C162.293 137.607 161.993 137.051 161.993 136.333C161.993 135.84 162.147 135.427 162.455 135.095C162.762 134.763 163.214 134.526 163.81 134.385C163.58 134.287 163.38 134.128 163.209 133.909C163.038 133.684 162.953 133.447 162.953 133.198C162.953 132.886 163.043 132.627 163.224 132.422C163.404 132.212 163.666 132.007 164.007 131.807C163.578 131.621 163.236 131.323 162.982 130.913C162.733 130.503 162.608 130.02 162.608 129.463C162.608 128.867 162.738 128.362 162.997 127.947C163.26 127.527 163.641 127.207 164.139 126.987C164.642 126.768 165.252 126.658 165.97 126.658C166.122 126.658 166.297 126.667 166.498 126.687C166.698 126.707 166.881 126.729 167.047 126.753C167.218 126.777 167.333 126.797 167.391 126.812H170.248V127.947L168.966 128.276C169.083 128.457 169.171 128.65 169.229 128.855C169.288 129.06 169.317 129.277 169.317 129.507C169.317 130.386 169.01 131.072 168.395 131.565C167.784 132.053 166.935 132.297 165.846 132.297C165.587 132.283 165.343 132.263 165.113 132.239C165.001 132.327 164.916 132.419 164.857 132.517C164.798 132.615 164.769 132.717 164.769 132.825C164.769 132.932 164.813 133.022 164.901 133.096C164.994 133.164 165.13 133.218 165.311 133.257C165.497 133.291 165.726 133.308 166 133.308H167.391C168.29 133.308 168.973 133.501 169.442 133.887C169.916 134.272 170.152 134.839 170.152 135.586C170.152 136.543 169.752 137.285 168.951 137.812C168.155 138.34 167.01 138.604 165.516 138.604ZM165.611 137.146C166.144 137.146 166.6 137.095 166.981 136.992C167.367 136.895 167.662 136.753 167.867 136.567C168.072 136.387 168.175 136.169 168.175 135.916C168.175 135.71 168.114 135.547 167.992 135.425C167.875 135.308 167.694 135.225 167.45 135.176C167.21 135.127 166.903 135.103 166.527 135.103H165.37C165.096 135.103 164.85 135.146 164.63 135.234C164.415 135.322 164.244 135.444 164.117 135.601C163.99 135.762 163.927 135.947 163.927 136.157C163.927 136.465 164.073 136.707 164.366 136.882C164.664 137.058 165.079 137.146 165.611 137.146ZM165.97 130.935C166.39 130.935 166.698 130.806 166.893 130.547C167.088 130.288 167.186 129.937 167.186 129.492C167.186 128.999 167.083 128.63 166.878 128.386C166.678 128.137 166.375 128.013 165.97 128.013C165.56 128.013 165.252 128.137 165.047 128.386C164.842 128.63 164.74 128.999 164.74 129.492C164.74 129.937 164.84 130.288 165.04 130.547C165.245 130.806 165.555 130.935 165.97 130.935ZM173.836 123.604V125.925C173.836 126.331 173.822 126.716 173.792 127.083C173.768 127.449 173.749 127.708 173.734 127.859H173.851C174.027 127.576 174.234 127.346 174.474 127.17C174.718 126.995 174.986 126.865 175.279 126.782C175.572 126.699 175.887 126.658 176.224 126.658C176.815 126.658 177.33 126.763 177.77 126.973C178.209 127.178 178.551 127.502 178.795 127.947C179.039 128.386 179.161 128.958 179.161 129.661V135H176.927V130.217C176.927 129.631 176.82 129.189 176.605 128.892C176.39 128.594 176.058 128.445 175.609 128.445C175.16 128.445 174.806 128.55 174.547 128.76C174.288 128.965 174.105 129.27 173.998 129.675C173.89 130.076 173.836 130.566 173.836 131.147V135H171.603V123.604H173.836ZM184.911 133.367C185.155 133.367 185.392 133.342 185.621 133.293C185.855 133.245 186.087 133.184 186.317 133.11V134.773C186.078 134.88 185.78 134.968 185.423 135.037C185.072 135.11 184.686 135.146 184.266 135.146C183.778 135.146 183.338 135.068 182.948 134.912C182.562 134.751 182.257 134.475 182.032 134.084C181.812 133.689 181.703 133.14 181.703 132.437V128.489H180.633V127.544L181.864 126.797L182.508 125.068H183.937V126.812H186.229V128.489H183.937V132.437C183.937 132.749 184.024 132.983 184.2 133.14C184.381 133.291 184.618 133.367 184.911 133.367ZM187.665 133.953C187.665 133.494 187.789 133.171 188.038 132.986C188.292 132.8 188.597 132.708 188.954 132.708C189.3 132.708 189.598 132.8 189.847 132.986C190.101 133.171 190.228 133.494 190.228 133.953C190.228 134.392 190.101 134.709 189.847 134.905C189.598 135.1 189.3 135.198 188.954 135.198C188.597 135.198 188.292 135.1 188.038 134.905C187.789 134.709 187.665 134.392 187.665 133.953ZM187.665 127.903C187.665 127.444 187.789 127.122 188.038 126.936C188.292 126.75 188.597 126.658 188.954 126.658C189.3 126.658 189.598 126.75 189.847 126.936C190.101 127.122 190.228 127.444 190.228 127.903C190.228 128.347 190.101 128.667 189.847 128.862C189.598 129.053 189.3 129.148 188.954 129.148C188.597 129.148 188.292 129.053 188.038 128.862C187.789 128.667 187.665 128.347 187.665 127.903ZM203.067 135H195.582V133.425L198.27 130.708C198.812 130.151 199.247 129.688 199.574 129.316C199.906 128.94 200.145 128.599 200.292 128.291C200.443 127.983 200.519 127.654 200.519 127.302C200.519 126.877 200.399 126.56 200.16 126.35C199.925 126.135 199.61 126.028 199.215 126.028C198.8 126.028 198.397 126.123 198.006 126.313C197.616 126.504 197.208 126.775 196.783 127.126L195.553 125.669C195.86 125.405 196.185 125.156 196.527 124.922C196.874 124.688 197.274 124.5 197.728 124.358C198.187 124.211 198.736 124.138 199.376 124.138C200.079 124.138 200.682 124.265 201.185 124.519C201.693 124.773 202.083 125.12 202.357 125.559C202.63 125.994 202.767 126.487 202.767 127.039C202.767 127.629 202.65 128.169 202.416 128.657C202.181 129.146 201.839 129.629 201.39 130.107C200.946 130.586 200.409 131.116 199.779 131.697L198.402 132.993V133.096H203.067V135ZM211.651 135H204.166V133.425L206.854 130.708C207.396 130.151 207.831 129.688 208.158 129.316C208.49 128.94 208.729 128.599 208.875 128.291C209.027 127.983 209.103 127.654 209.103 127.302C209.103 126.877 208.983 126.56 208.744 126.35C208.509 126.135 208.194 126.028 207.799 126.028C207.384 126.028 206.981 126.123 206.59 126.313C206.2 126.504 205.792 126.775 205.367 127.126L204.137 125.669C204.444 125.405 204.769 125.156 205.111 124.922C205.458 124.688 205.858 124.5 206.312 124.358C206.771 124.211 207.32 124.138 207.96 124.138C208.663 124.138 209.266 124.265 209.769 124.519C210.277 124.773 210.667 125.12 210.941 125.559C211.214 125.994 211.351 126.487 211.351 127.039C211.351 127.629 211.234 128.169 211 128.657C210.765 129.146 210.423 129.629 209.974 130.107C209.53 130.586 208.993 131.116 208.363 131.697L206.986 132.993V133.096H211.651V135ZM213.006 133.953C213.006 133.494 213.131 133.171 213.38 132.986C213.634 132.8 213.939 132.708 214.295 132.708C214.642 132.708 214.94 132.8 215.189 132.986C215.443 133.171 215.57 133.494 215.57 133.953C215.57 134.392 215.443 134.709 215.189 134.905C214.94 135.1 214.642 135.198 214.295 135.198C213.939 135.198 213.634 135.1 213.38 134.905C213.131 134.709 213.006 134.392 213.006 133.953ZM220.924 128.159C221.578 128.159 222.159 128.284 222.667 128.533C223.18 128.782 223.583 129.148 223.875 129.631C224.168 130.115 224.315 130.71 224.315 131.418C224.315 132.19 224.154 132.856 223.832 133.418C223.514 133.975 223.038 134.402 222.403 134.7C221.773 134.998 220.987 135.146 220.045 135.146C219.483 135.146 218.954 135.098 218.456 135C217.962 134.907 217.53 134.763 217.159 134.568V132.612C217.53 132.808 217.975 132.974 218.492 133.11C219.015 133.242 219.505 133.308 219.964 133.308C220.414 133.308 220.792 133.25 221.1 133.132C221.407 133.01 221.639 132.825 221.795 132.576C221.957 132.322 222.037 132 222.037 131.609C222.037 131.086 221.861 130.686 221.51 130.408C221.158 130.129 220.619 129.99 219.891 129.99C219.613 129.99 219.322 130.017 219.02 130.071C218.722 130.125 218.473 130.178 218.272 130.232L217.372 129.749L217.774 124.292H223.583V126.211H219.759L219.562 128.313C219.728 128.279 219.908 128.245 220.104 128.21C220.299 128.176 220.572 128.159 220.924 128.159ZM232.313 123.604V128.701C232.313 129.009 232.301 129.316 232.276 129.624C232.252 129.932 232.225 130.239 232.196 130.547H232.225C232.376 130.332 232.53 130.12 232.687 129.91C232.848 129.7 233.019 129.497 233.199 129.302L235.492 126.812H238.011L234.759 130.364L238.209 135H235.631L233.272 131.682L232.313 132.451V135H230.079V123.604H232.313ZM241.776 138.604C240.633 138.604 239.759 138.403 239.154 138.003C238.553 137.607 238.253 137.051 238.253 136.333C238.253 135.84 238.407 135.427 238.714 135.095C239.022 134.763 239.474 134.526 240.069 134.385C239.84 134.287 239.64 134.128 239.469 133.909C239.298 133.684 239.212 133.447 239.212 133.198C239.212 132.886 239.303 132.627 239.483 132.422C239.664 132.212 239.925 132.007 240.267 131.807C239.837 131.621 239.496 131.323 239.242 130.913C238.993 130.503 238.868 130.02 238.868 129.463C238.868 128.867 238.998 128.362 239.256 127.947C239.52 127.527 239.901 127.207 240.399 126.987C240.902 126.768 241.512 126.658 242.23 126.658C242.381 126.658 242.557 126.667 242.757 126.687C242.958 126.707 243.141 126.729 243.307 126.753C243.478 126.777 243.592 126.797 243.651 126.812H246.507V127.947L245.226 128.276C245.343 128.457 245.431 128.65 245.489 128.855C245.548 129.06 245.577 129.277 245.577 129.507C245.577 130.386 245.27 131.072 244.654 131.565C244.044 132.053 243.194 132.297 242.105 132.297C241.847 132.283 241.603 132.263 241.373 132.239C241.261 132.327 241.175 132.419 241.117 132.517C241.058 132.615 241.029 132.717 241.029 132.825C241.029 132.932 241.073 133.022 241.161 133.096C241.253 133.164 241.39 133.218 241.571 133.257C241.756 133.291 241.986 133.308 242.259 133.308H243.651C244.549 133.308 245.233 133.501 245.702 133.887C246.175 134.272 246.412 134.839 246.412 135.586C246.412 136.543 246.012 137.285 245.211 137.812C244.415 138.34 243.27 138.604 241.776 138.604ZM241.871 137.146C242.403 137.146 242.86 137.095 243.241 136.992C243.626 136.895 243.922 136.753 244.127 136.567C244.332 136.387 244.435 136.169 244.435 135.916C244.435 135.71 244.374 135.547 244.251 135.425C244.134 135.308 243.954 135.225 243.709 135.176C243.47 135.127 243.163 135.103 242.787 135.103H241.629C241.356 135.103 241.109 135.146 240.89 135.234C240.675 135.322 240.504 135.444 240.377 135.601C240.25 135.762 240.187 135.947 240.187 136.157C240.187 136.465 240.333 136.707 240.626 136.882C240.924 137.058 241.339 137.146 241.871 137.146ZM242.23 130.935C242.65 130.935 242.958 130.806 243.153 130.547C243.348 130.288 243.446 129.937 243.446 129.492C243.446 128.999 243.343 128.63 243.138 128.386C242.938 128.137 242.635 128.013 242.23 128.013C241.82 128.013 241.512 128.137 241.307 128.386C241.102 128.63 241 128.999 241 129.492C241 129.937 241.1 130.288 241.3 130.547C241.505 130.806 241.815 130.935 242.23 130.935ZM138.768 144.292C140.15 144.292 141.158 144.59 141.793 145.186C142.428 145.776 142.745 146.592 142.745 147.632C142.745 148.101 142.674 148.55 142.533 148.979C142.391 149.404 142.159 149.783 141.837 150.115C141.52 150.447 141.095 150.71 140.562 150.906C140.03 151.096 139.374 151.191 138.592 151.191H137.618V155H135.348V144.292H138.768ZM138.651 146.152H137.618V149.331H138.365C138.79 149.331 139.159 149.275 139.471 149.163C139.784 149.05 140.025 148.875 140.196 148.635C140.367 148.396 140.453 148.088 140.453 147.712C140.453 147.185 140.306 146.794 140.013 146.541C139.72 146.282 139.266 146.152 138.651 146.152ZM147.945 146.643C149.044 146.643 149.886 146.882 150.472 147.361C151.058 147.839 151.351 148.567 151.351 149.543V155H149.791L149.359 153.887H149.3C149.066 154.18 148.827 154.419 148.583 154.604C148.338 154.79 148.058 154.927 147.74 155.015C147.423 155.103 147.037 155.146 146.583 155.146C146.1 155.146 145.665 155.054 145.279 154.868C144.898 154.683 144.598 154.399 144.378 154.019C144.159 153.633 144.049 153.145 144.049 152.554C144.049 151.685 144.354 151.045 144.964 150.635C145.575 150.22 146.49 149.99 147.711 149.946L149.132 149.902V149.543C149.132 149.114 149.02 148.799 148.795 148.599C148.57 148.398 148.258 148.298 147.857 148.298C147.462 148.298 147.074 148.354 146.693 148.467C146.312 148.579 145.931 148.721 145.55 148.892L144.811 147.383C145.245 147.153 145.731 146.973 146.268 146.841C146.81 146.709 147.369 146.643 147.945 146.643ZM149.132 151.206L148.268 151.235C147.545 151.255 147.042 151.384 146.759 151.624C146.48 151.863 146.341 152.178 146.341 152.568C146.341 152.91 146.441 153.154 146.642 153.301C146.842 153.442 147.103 153.513 147.425 153.513C147.904 153.513 148.307 153.372 148.634 153.088C148.966 152.805 149.132 152.402 149.132 151.88V151.206ZM157.108 153.367C157.352 153.367 157.589 153.342 157.818 153.293C158.053 153.245 158.285 153.184 158.514 153.11V154.773C158.275 154.88 157.977 154.968 157.621 155.037C157.269 155.11 156.883 155.146 156.463 155.146C155.975 155.146 155.536 155.068 155.145 154.912C154.759 154.751 154.454 154.475 154.229 154.084C154.01 153.689 153.9 153.14 153.9 152.437V148.489H152.831V147.544L154.061 146.797L154.706 145.068H156.134V146.812H158.426V148.489H156.134V152.437C156.134 152.749 156.222 152.983 156.397 153.14C156.578 153.291 156.815 153.367 157.108 153.367ZM162.411 146.812V155H160.177V146.812H162.411ZM161.297 143.604C161.629 143.604 161.915 143.682 162.154 143.838C162.394 143.989 162.513 144.275 162.513 144.695C162.513 145.11 162.394 145.398 162.154 145.559C161.915 145.715 161.629 145.793 161.297 145.793C160.96 145.793 160.672 145.715 160.433 145.559C160.199 145.398 160.082 145.11 160.082 144.695C160.082 144.275 160.199 143.989 160.433 143.838C160.672 143.682 160.96 143.604 161.297 143.604ZM168.138 146.658C168.895 146.658 169.547 146.804 170.094 147.097C170.641 147.385 171.063 147.805 171.361 148.357C171.659 148.909 171.808 149.583 171.808 150.378V151.462H166.527C166.551 152.092 166.739 152.588 167.091 152.949C167.447 153.306 167.94 153.484 168.57 153.484C169.093 153.484 169.571 153.43 170.006 153.323C170.44 153.215 170.887 153.054 171.346 152.839V154.568C170.941 154.768 170.516 154.915 170.072 155.007C169.632 155.1 169.098 155.146 168.468 155.146C167.647 155.146 166.92 154.995 166.285 154.692C165.655 154.39 165.16 153.928 164.798 153.308C164.442 152.688 164.264 151.907 164.264 150.964C164.264 150.007 164.425 149.211 164.747 148.577C165.074 147.937 165.528 147.458 166.109 147.141C166.69 146.819 167.367 146.658 168.138 146.658ZM168.153 148.247C167.718 148.247 167.357 148.386 167.069 148.665C166.786 148.943 166.622 149.38 166.578 149.976H169.713C169.708 149.644 169.647 149.348 169.53 149.089C169.417 148.831 169.247 148.625 169.017 148.474C168.792 148.323 168.504 148.247 168.153 148.247ZM178.275 146.658C179.149 146.658 179.852 146.897 180.384 147.375C180.917 147.849 181.183 148.611 181.183 149.661V155H178.949V150.217C178.949 149.631 178.841 149.189 178.626 148.892C178.417 148.594 178.084 148.445 177.63 148.445C176.947 148.445 176.48 148.677 176.231 149.141C175.982 149.604 175.858 150.273 175.858 151.147V155H173.624V146.812H175.331L175.631 147.859H175.755C175.931 147.576 176.148 147.346 176.407 147.17C176.671 146.995 176.961 146.865 177.279 146.782C177.601 146.699 177.933 146.658 178.275 146.658ZM186.932 153.367C187.176 153.367 187.413 153.342 187.643 153.293C187.877 153.245 188.109 153.184 188.338 153.11V154.773C188.099 154.88 187.801 154.968 187.445 155.037C187.093 155.11 186.708 155.146 186.288 155.146C185.799 155.146 185.36 155.068 184.969 154.912C184.583 154.751 184.278 154.475 184.054 154.084C183.834 153.689 183.724 153.14 183.724 152.437V148.489H182.655V147.544L183.885 146.797L184.53 145.068H185.958V146.812H188.25V148.489H185.958V152.437C185.958 152.749 186.046 152.983 186.222 153.14C186.402 153.291 186.639 153.367 186.932 153.367ZM194.073 155V144.292H196.344V155H194.073ZM207.923 149.543C207.923 150.75 207.691 151.758 207.228 152.568C206.769 153.374 206.102 153.982 205.228 154.392C204.354 154.797 203.302 155 202.071 155H199.039V144.292H202.401C203.524 144.292 204.498 144.492 205.323 144.893C206.148 145.288 206.788 145.876 207.242 146.658C207.696 147.434 207.923 148.396 207.923 149.543ZM205.565 149.602C205.565 148.811 205.448 148.162 205.213 147.654C204.984 147.141 204.642 146.763 204.188 146.519C203.739 146.274 203.182 146.152 202.518 146.152H201.31V153.125H202.284C203.392 153.125 204.215 152.83 204.752 152.239C205.294 151.648 205.565 150.769 205.565 149.602ZM209.652 153.953C209.652 153.494 209.776 153.171 210.025 152.986C210.279 152.8 210.584 152.708 210.941 152.708C211.288 152.708 211.585 152.8 211.834 152.986C212.088 153.171 212.215 153.494 212.215 153.953C212.215 154.392 212.088 154.709 211.834 154.905C211.585 155.1 211.288 155.198 210.941 155.198C210.584 155.198 210.279 155.1 210.025 154.905C209.776 154.709 209.652 154.392 209.652 153.953ZM209.652 147.903C209.652 147.444 209.776 147.122 210.025 146.936C210.279 146.75 210.584 146.658 210.941 146.658C211.288 146.658 211.585 146.75 211.834 146.936C212.088 147.122 212.215 147.444 212.215 147.903C212.215 148.347 212.088 148.667 211.834 148.862C211.585 149.053 211.288 149.148 210.941 149.148C210.584 149.148 210.279 149.053 210.025 148.862C209.776 148.667 209.652 148.347 209.652 147.903ZM224.872 155L224.095 152.451H220.191L219.415 155H216.969L220.748 144.248H223.524L227.318 155H224.872ZM223.553 150.547L222.777 148.057C222.728 147.891 222.662 147.678 222.579 147.419C222.501 147.156 222.42 146.89 222.337 146.621C222.259 146.348 222.196 146.111 222.147 145.911C222.098 146.111 222.03 146.36 221.942 146.658C221.859 146.951 221.778 147.229 221.7 147.493C221.622 147.756 221.566 147.944 221.532 148.057L220.763 150.547H223.553ZM232.005 148.701L234.239 144.292H236.686L233.133 150.833V155H230.877V150.906L227.325 144.292H229.786L232.005 148.701ZM244.771 155H237.286V153.425L239.974 150.708C240.516 150.151 240.951 149.688 241.278 149.316C241.61 148.94 241.849 148.599 241.996 148.291C242.147 147.983 242.223 147.654 242.223 147.302C242.223 146.877 242.103 146.56 241.864 146.35C241.629 146.135 241.314 146.028 240.919 146.028C240.504 146.028 240.101 146.123 239.71 146.313C239.32 146.504 238.912 146.775 238.487 147.126L237.257 145.669C237.564 145.405 237.889 145.156 238.231 144.922C238.578 144.688 238.978 144.5 239.432 144.358C239.891 144.211 240.44 144.138 241.08 144.138C241.783 144.138 242.386 144.265 242.889 144.519C243.397 144.773 243.788 145.12 244.061 145.559C244.334 145.994 244.471 146.487 244.471 147.039C244.471 147.629 244.354 148.169 244.12 148.657C243.885 149.146 243.543 149.629 243.094 150.107C242.65 150.586 242.113 151.116 241.483 151.697L240.106 152.993V153.096H244.771V155ZM252.938 146.687C252.938 147.18 252.835 147.607 252.63 147.969C252.425 148.33 252.147 148.625 251.795 148.855C251.449 149.084 251.058 149.253 250.624 149.36V149.404C251.483 149.512 252.135 149.775 252.579 150.195C253.028 150.615 253.253 151.177 253.253 151.88C253.253 152.505 253.099 153.064 252.792 153.557C252.489 154.05 252.02 154.438 251.385 154.722C250.75 155.005 249.933 155.146 248.932 155.146C248.341 155.146 247.789 155.098 247.276 155C246.769 154.907 246.29 154.763 245.841 154.568V152.642C246.3 152.876 246.781 153.054 247.284 153.176C247.787 153.293 248.255 153.352 248.69 153.352C249.5 153.352 250.067 153.213 250.389 152.935C250.716 152.651 250.88 152.256 250.88 151.748C250.88 151.45 250.804 151.199 250.653 150.994C250.501 150.789 250.238 150.632 249.862 150.525C249.491 150.417 248.971 150.364 248.302 150.364H247.489V148.628H248.316C248.976 148.628 249.476 148.567 249.818 148.445C250.165 148.318 250.399 148.147 250.521 147.932C250.648 147.712 250.711 147.463 250.711 147.185C250.711 146.804 250.594 146.506 250.36 146.292C250.125 146.077 249.735 145.969 249.188 145.969C248.846 145.969 248.534 146.013 248.25 146.101C247.972 146.184 247.721 146.287 247.496 146.409C247.271 146.526 247.074 146.641 246.903 146.753L245.855 145.193C246.275 144.89 246.766 144.639 247.328 144.438C247.894 144.238 248.568 144.138 249.349 144.138C250.453 144.138 251.327 144.36 251.971 144.805C252.616 145.249 252.938 145.876 252.938 146.687ZM261.881 149.646C261.881 150.51 261.812 151.282 261.676 151.96C261.544 152.639 261.329 153.215 261.031 153.689C260.738 154.163 260.353 154.524 259.874 154.773C259.396 155.022 258.814 155.146 258.131 155.146C257.271 155.146 256.566 154.929 256.014 154.495C255.462 154.055 255.055 153.425 254.791 152.605C254.527 151.78 254.396 150.793 254.396 149.646C254.396 148.489 254.515 147.5 254.754 146.68C254.999 145.854 255.394 145.222 255.941 144.783C256.488 144.343 257.218 144.124 258.131 144.124C258.985 144.124 259.688 144.343 260.24 144.783C260.797 145.217 261.209 145.847 261.478 146.672C261.747 147.493 261.881 148.484 261.881 149.646ZM256.644 149.646C256.644 150.461 256.688 151.143 256.776 151.689C256.869 152.231 257.022 152.639 257.237 152.913C257.452 153.186 257.75 153.323 258.131 153.323C258.507 153.323 258.802 153.188 259.017 152.92C259.237 152.646 259.393 152.239 259.486 151.697C259.579 151.15 259.625 150.466 259.625 149.646C259.625 148.831 259.579 148.149 259.486 147.603C259.393 147.056 259.237 146.646 259.017 146.372C258.802 146.094 258.507 145.955 258.131 145.955C257.75 145.955 257.452 146.094 257.237 146.372C257.022 146.646 256.869 147.056 256.776 147.603C256.688 148.149 256.644 148.831 256.644 149.646ZM268.634 155H266.371V148.804C266.371 148.633 266.373 148.423 266.378 148.174C266.383 147.92 266.39 147.661 266.4 147.397C266.41 147.129 266.419 146.887 266.429 146.672C266.375 146.736 266.266 146.846 266.1 147.002C265.938 147.153 265.787 147.29 265.646 147.412L264.415 148.401L263.324 147.039L266.773 144.292H268.634V155Z" fill="black"/>
<defs>
<filter id="filter0_d_1_1777" x="0" y="0" width="383" height="214" filterUnits="userSpaceOnUse" color-interpolation-filters="sRGB">
<feFlood flood-opacity="0" result="BackgroundImageFix"/>
<feColorMatrix in="SourceAlpha" type="matrix" values="0 0 0 0 0 0 0 0 0 0 0 0 0 0 0 0 0 0 127 0" result="hardAlpha"/>
<feOffset dy="4"/>
<feGaussianBlur stdDeviation="2"/>
<feComposite in2="hardAlpha" operator="out"/>
<feColorMatrix type="matrix" values="0 0 0 0 0 0 0 0 0 0 0 0 0 0 0 0 0 0 0.25 0"/>
<feBlend mode="normal" in2="BackgroundImageFix" result="effect1_dropShadow_1_1777"/>
<feBlend mode="normal" in="SourceGraphic" in2="effect1_dropShadow_1_1777" result="shape"/>
</filter>
</defs>
</svg>
